ISO-10303-21;
HEADER;
/* Generated by software containing ST-Developer
 * from STEP Tools, Inc. (www.steptools.com) 
 */

FILE_DESCRIPTION(
/* description */ (''),
/* implementation_level */ '2;1');

FILE_NAME(
/* name */ 'mic.step',
/* time_stamp */ '2025-06-16T16:18:17+03:00',
/* author */ (''),
/* organization */ (''),
/* preprocessor_version */ 'ST-DEVELOPER v20.1',
/* originating_system */ 'Autodesk Translation Framework v14.10.0.0',
/* authorisation */ '');

FILE_SCHEMA (('AUTOMOTIVE_DESIGN { 1 0 10303 214 3 1 1 }'));
ENDSEC;

DATA;
#10=MECHANICAL_DESIGN_GEOMETRIC_PRESENTATION_REPRESENTATION('',(#14,#15),
#593);
#11=SHAPE_REPRESENTATION_RELATIONSHIP('SRR','None',#600,#12);
#12=ADVANCED_BREP_SHAPE_REPRESENTATION('',(#13),#592);
#13=MANIFOLD_SOLID_BREP('Body1',#317);
#14=STYLED_ITEM('',(#610),#310);
#15=STYLED_ITEM('',(#609),#13);
#16=FACE_BOUND('',#61,.T.);
#17=PLANE('',#353);
#18=PLANE('',#356);
#19=PLANE('',#357);
#20=PLANE('',#359);
#21=PLANE('',#361);
#22=PLANE('',#367);
#23=PLANE('',#368);
#24=(
BOUNDED_SURFACE()
B_SPLINE_SURFACE(2,2,((#478,#479,#480),(#481,#482,#483),(#484,#485,#486)),
 .UNSPECIFIED.,.F.,.F.,.F.)
B_SPLINE_SURFACE_WITH_KNOTS((3,3),(3,3),(0.,1.5707963267949),(1.57079632679489,
3.1415926535898),.UNSPECIFIED.)
GEOMETRIC_REPRESENTATION_ITEM()
RATIONAL_B_SPLINE_SURFACE(((1.,0.707106781186544,1.),(0.707106781186549,
0.499999999999998,0.707106781186549),(1.,0.707106781186544,1.)))
REPRESENTATION_ITEM('')
SURFACE()
);
#25=(
BOUNDED_SURFACE()
B_SPLINE_SURFACE(2,2,((#498,#499,#500),(#501,#502,#503),(#504,#505,#506)),
 .UNSPECIFIED.,.F.,.F.,.F.)
B_SPLINE_SURFACE_WITH_KNOTS((3,3),(3,3),(0.,1.5707963267949),(-3.14159265358979,
-1.5707963267949),.UNSPECIFIED.)
GEOMETRIC_REPRESENTATION_ITEM()
RATIONAL_B_SPLINE_SURFACE(((1.,0.707106781186548,1.),(0.707106781186546,
0.499999999999999,0.707106781186546),(1.,0.707106781186548,1.)))
REPRESENTATION_ITEM('')
SURFACE()
);
#26=(
BOUNDED_SURFACE()
B_SPLINE_SURFACE(2,2,((#518,#519,#520),(#521,#522,#523),(#524,#525,#526)),
 .UNSPECIFIED.,.F.,.F.,.F.)
B_SPLINE_SURFACE_WITH_KNOTS((3,3),(3,3),(0.,1.5707963267949),(-1.57079632679491,
0.),.UNSPECIFIED.)
GEOMETRIC_REPRESENTATION_ITEM()
RATIONAL_B_SPLINE_SURFACE(((1.,0.707106781186544,1.),(0.707106781186546,
0.499999999999996,0.707106781186546),(1.,0.707106781186544,1.)))
REPRESENTATION_ITEM('')
SURFACE()
);
#27=(
BOUNDED_SURFACE()
B_SPLINE_SURFACE(2,2,((#538,#539,#540),(#541,#542,#543),(#544,#545,#546)),
 .UNSPECIFIED.,.F.,.F.,.F.)
B_SPLINE_SURFACE_WITH_KNOTS((3,3),(3,3),(0.,1.5707963267949),(0.,1.5707963267949),
 .UNSPECIFIED.)
GEOMETRIC_REPRESENTATION_ITEM()
RATIONAL_B_SPLINE_SURFACE(((1.,0.707106781186548,1.),(0.707106781186547,
0.5,0.707106781186547),(1.,0.707106781186548,1.)))
REPRESENTATION_ITEM('')
SURFACE()
);
#28=FACE_OUTER_BOUND('',#48,.T.);
#29=FACE_OUTER_BOUND('',#49,.T.);
#30=FACE_OUTER_BOUND('',#50,.T.);
#31=FACE_OUTER_BOUND('',#51,.T.);
#32=FACE_OUTER_BOUND('',#52,.T.);
#33=FACE_OUTER_BOUND('',#53,.T.);
#34=FACE_OUTER_BOUND('',#54,.T.);
#35=FACE_OUTER_BOUND('',#55,.T.);
#36=FACE_OUTER_BOUND('',#56,.T.);
#37=FACE_OUTER_BOUND('',#57,.T.);
#38=FACE_OUTER_BOUND('',#58,.T.);
#39=FACE_OUTER_BOUND('',#59,.T.);
#40=FACE_OUTER_BOUND('',#60,.T.);
#41=FACE_OUTER_BOUND('',#62,.T.);
#42=FACE_OUTER_BOUND('',#63,.T.);
#43=FACE_OUTER_BOUND('',#64,.T.);
#44=FACE_OUTER_BOUND('',#65,.T.);
#45=FACE_OUTER_BOUND('',#66,.T.);
#46=FACE_OUTER_BOUND('',#67,.T.);
#47=FACE_OUTER_BOUND('',#68,.T.);
#48=EDGE_LOOP('',(#202,#203,#204,#205));
#49=EDGE_LOOP('',(#206,#207,#208,#209));
#50=EDGE_LOOP('',(#210,#211,#212,#213));
#51=EDGE_LOOP('',(#214,#215,#216,#217));
#52=EDGE_LOOP('',(#218,#219,#220,#221));
#53=EDGE_LOOP('',(#222,#223,#224,#225));
#54=EDGE_LOOP('',(#226,#227,#228,#229));
#55=EDGE_LOOP('',(#230,#231,#232,#233));
#56=EDGE_LOOP('',(#234,#235,#236,#237));
#57=EDGE_LOOP('',(#238,#239,#240,#241));
#58=EDGE_LOOP('',(#242,#243,#244,#245));
#59=EDGE_LOOP('',(#246,#247,#248,#249));
#60=EDGE_LOOP('',(#250,#251,#252,#253,#254,#255,#256,#257));
#61=EDGE_LOOP('',(#258));
#62=EDGE_LOOP('',(#259));
#63=EDGE_LOOP('',(#260,#261,#262,#263));
#64=EDGE_LOOP('',(#264,#265,#266,#267));
#65=EDGE_LOOP('',(#268,#269,#270,#271));
#66=EDGE_LOOP('',(#272,#273,#274,#275));
#67=EDGE_LOOP('',(#276,#277,#278,#279));
#68=EDGE_LOOP('',(#280,#281,#282,#283,#284,#285,#286,#287));
#69=LINE('',#474,#90);
#70=LINE('',#477,#91);
#71=LINE('',#496,#92);
#72=LINE('',#497,#93);
#73=LINE('',#516,#94);
#74=LINE('',#517,#95);
#75=LINE('',#536,#96);
#76=LINE('',#537,#97);
#77=LINE('',#551,#98);
#78=LINE('',#554,#99);
#79=LINE('',#557,#100);
#80=LINE('',#558,#101);
#81=LINE('',#561,#102);
#82=LINE('',#565,#103);
#83=LINE('',#566,#104);
#84=LINE('',#575,#105);
#85=LINE('',#577,#106);
#86=LINE('',#578,#107);
#87=LINE('',#582,#108);
#88=LINE('',#585,#109);
#89=LINE('',#588,#110);
#90=VECTOR('',#375,10.);
#91=VECTOR('',#378,10.);
#92=VECTOR('',#389,10.);
#93=VECTOR('',#390,10.);
#94=VECTOR('',#401,10.);
#95=VECTOR('',#402,10.);
#96=VECTOR('',#413,10.);
#97=VECTOR('',#414,10.);
#98=VECTOR('',#421,10.);
#99=VECTOR('',#424,10.);
#100=VECTOR('',#427,10.);
#101=VECTOR('',#428,10.);
#102=VECTOR('',#431,10.);
#103=VECTOR('',#436,10.);
#104=VECTOR('',#437,10.);
#105=VECTOR('',#448,10.);
#106=VECTOR('',#449,10.);
#107=VECTOR('',#450,10.);
#108=VECTOR('',#457,0.5);
#109=VECTOR('',#460,10.);
#110=VECTOR('',#465,10.);
#111=CIRCLE('',#332,0.2);
#112=CIRCLE('',#333,0.2);
#113=CIRCLE('',#334,0.2);
#114=CIRCLE('',#335,0.0499999999999994);
#115=CIRCLE('',#336,0.249999999999999);
#116=CIRCLE('',#338,0.2);
#117=CIRCLE('',#339,0.2);
#118=CIRCLE('',#340,0.0499999999999999);
#119=CIRCLE('',#341,0.25);
#120=CIRCLE('',#343,0.2);
#121=CIRCLE('',#344,0.2);
#122=CIRCLE('',#345,0.0499999999999991);
#123=CIRCLE('',#346,0.249999999999999);
#124=CIRCLE('',#348,0.2);
#125=CIRCLE('',#349,0.0499999999999999);
#126=CIRCLE('',#350,0.25);
#127=CIRCLE('',#352,0.25);
#128=CIRCLE('',#355,0.249999999999999);
#129=CIRCLE('',#358,0.5);
#130=CIRCLE('',#360,0.5);
#131=CIRCLE('',#363,0.25);
#132=CIRCLE('',#366,0.249999999999999);
#133=VERTEX_POINT('',#470);
#134=VERTEX_POINT('',#471);
#135=VERTEX_POINT('',#473);
#136=VERTEX_POINT('',#475);
#137=VERTEX_POINT('',#487);
#138=VERTEX_POINT('',#488);
#139=VERTEX_POINT('',#493);
#140=VERTEX_POINT('',#494);
#141=VERTEX_POINT('',#507);
#142=VERTEX_POINT('',#508);
#143=VERTEX_POINT('',#513);
#144=VERTEX_POINT('',#514);
#145=VERTEX_POINT('',#527);
#146=VERTEX_POINT('',#528);
#147=VERTEX_POINT('',#533);
#148=VERTEX_POINT('',#534);
#149=VERTEX_POINT('',#550);
#150=VERTEX_POINT('',#552);
#151=VERTEX_POINT('',#556);
#152=VERTEX_POINT('',#560);
#153=VERTEX_POINT('',#564);
#154=VERTEX_POINT('',#568);
#155=VERTEX_POINT('',#571);
#156=VERTEX_POINT('',#574);
#157=VERTEX_POINT('',#576);
#158=VERTEX_POINT('',#584);
#159=EDGE_CURVE('',#133,#134,#111,.T.);
#160=EDGE_CURVE('',#134,#135,#69,.T.);
#161=EDGE_CURVE('',#135,#136,#112,.T.);
#162=EDGE_CURVE('',#136,#133,#70,.T.);
#163=EDGE_CURVE('',#137,#138,#113,.T.);
#164=EDGE_CURVE('',#138,#136,#114,.T.);
#165=EDGE_CURVE('',#135,#137,#115,.T.);
#166=EDGE_CURVE('',#139,#140,#116,.T.);
#167=EDGE_CURVE('',#140,#138,#71,.T.);
#168=EDGE_CURVE('',#137,#139,#72,.T.);
#169=EDGE_CURVE('',#141,#142,#117,.T.);
#170=EDGE_CURVE('',#142,#140,#118,.T.);
#171=EDGE_CURVE('',#139,#141,#119,.T.);
#172=EDGE_CURVE('',#143,#144,#120,.T.);
#173=EDGE_CURVE('',#144,#142,#73,.T.);
#174=EDGE_CURVE('',#141,#143,#74,.T.);
#175=EDGE_CURVE('',#145,#146,#121,.T.);
#176=EDGE_CURVE('',#146,#144,#122,.T.);
#177=EDGE_CURVE('',#143,#145,#123,.T.);
#178=EDGE_CURVE('',#147,#148,#124,.T.);
#179=EDGE_CURVE('',#148,#146,#75,.T.);
#180=EDGE_CURVE('',#145,#147,#76,.T.);
#181=EDGE_CURVE('',#133,#148,#125,.T.);
#182=EDGE_CURVE('',#147,#134,#126,.T.);
#183=EDGE_CURVE('',#149,#139,#77,.T.);
#184=EDGE_CURVE('',#149,#150,#127,.T.);
#185=EDGE_CURVE('',#150,#141,#78,.T.);
#186=EDGE_CURVE('',#151,#137,#79,.T.);
#187=EDGE_CURVE('',#149,#151,#80,.T.);
#188=EDGE_CURVE('',#152,#135,#81,.T.);
#189=EDGE_CURVE('',#152,#151,#128,.T.);
#190=EDGE_CURVE('',#153,#134,#82,.T.);
#191=EDGE_CURVE('',#152,#153,#83,.T.);
#192=EDGE_CURVE('',#154,#154,#129,.T.);
#193=EDGE_CURVE('',#155,#155,#130,.T.);
#194=EDGE_CURVE('',#156,#145,#84,.T.);
#195=EDGE_CURVE('',#157,#156,#85,.T.);
#196=EDGE_CURVE('',#157,#147,#86,.T.);
#197=EDGE_CURVE('',#157,#153,#131,.T.);
#198=EDGE_CURVE('',#154,#155,#87,.T.);
#199=EDGE_CURVE('',#158,#143,#88,.T.);
#200=EDGE_CURVE('',#158,#156,#132,.T.);
#201=EDGE_CURVE('',#158,#150,#89,.T.);
#202=ORIENTED_EDGE('',*,*,#159,.T.);
#203=ORIENTED_EDGE('',*,*,#160,.T.);
#204=ORIENTED_EDGE('',*,*,#161,.T.);
#205=ORIENTED_EDGE('',*,*,#162,.T.);
#206=ORIENTED_EDGE('',*,*,#163,.T.);
#207=ORIENTED_EDGE('',*,*,#164,.T.);
#208=ORIENTED_EDGE('',*,*,#161,.F.);
#209=ORIENTED_EDGE('',*,*,#165,.T.);
#210=ORIENTED_EDGE('',*,*,#166,.T.);
#211=ORIENTED_EDGE('',*,*,#167,.T.);
#212=ORIENTED_EDGE('',*,*,#163,.F.);
#213=ORIENTED_EDGE('',*,*,#168,.T.);
#214=ORIENTED_EDGE('',*,*,#169,.T.);
#215=ORIENTED_EDGE('',*,*,#170,.T.);
#216=ORIENTED_EDGE('',*,*,#166,.F.);
#217=ORIENTED_EDGE('',*,*,#171,.T.);
#218=ORIENTED_EDGE('',*,*,#172,.T.);
#219=ORIENTED_EDGE('',*,*,#173,.T.);
#220=ORIENTED_EDGE('',*,*,#169,.F.);
#221=ORIENTED_EDGE('',*,*,#174,.T.);
#222=ORIENTED_EDGE('',*,*,#175,.T.);
#223=ORIENTED_EDGE('',*,*,#176,.T.);
#224=ORIENTED_EDGE('',*,*,#172,.F.);
#225=ORIENTED_EDGE('',*,*,#177,.T.);
#226=ORIENTED_EDGE('',*,*,#178,.T.);
#227=ORIENTED_EDGE('',*,*,#179,.T.);
#228=ORIENTED_EDGE('',*,*,#175,.F.);
#229=ORIENTED_EDGE('',*,*,#180,.T.);
#230=ORIENTED_EDGE('',*,*,#159,.F.);
#231=ORIENTED_EDGE('',*,*,#181,.T.);
#232=ORIENTED_EDGE('',*,*,#178,.F.);
#233=ORIENTED_EDGE('',*,*,#182,.T.);
#234=ORIENTED_EDGE('',*,*,#171,.F.);
#235=ORIENTED_EDGE('',*,*,#183,.F.);
#236=ORIENTED_EDGE('',*,*,#184,.T.);
#237=ORIENTED_EDGE('',*,*,#185,.T.);
#238=ORIENTED_EDGE('',*,*,#168,.F.);
#239=ORIENTED_EDGE('',*,*,#186,.F.);
#240=ORIENTED_EDGE('',*,*,#187,.F.);
#241=ORIENTED_EDGE('',*,*,#183,.T.);
#242=ORIENTED_EDGE('',*,*,#165,.F.);
#243=ORIENTED_EDGE('',*,*,#188,.F.);
#244=ORIENTED_EDGE('',*,*,#189,.T.);
#245=ORIENTED_EDGE('',*,*,#186,.T.);
#246=ORIENTED_EDGE('',*,*,#160,.F.);
#247=ORIENTED_EDGE('',*,*,#190,.F.);
#248=ORIENTED_EDGE('',*,*,#191,.F.);
#249=ORIENTED_EDGE('',*,*,#188,.T.);
#250=ORIENTED_EDGE('',*,*,#162,.F.);
#251=ORIENTED_EDGE('',*,*,#164,.F.);
#252=ORIENTED_EDGE('',*,*,#167,.F.);
#253=ORIENTED_EDGE('',*,*,#170,.F.);
#254=ORIENTED_EDGE('',*,*,#173,.F.);
#255=ORIENTED_EDGE('',*,*,#176,.F.);
#256=ORIENTED_EDGE('',*,*,#179,.F.);
#257=ORIENTED_EDGE('',*,*,#181,.F.);
#258=ORIENTED_EDGE('',*,*,#192,.T.);
#259=ORIENTED_EDGE('',*,*,#193,.F.);
#260=ORIENTED_EDGE('',*,*,#180,.F.);
#261=ORIENTED_EDGE('',*,*,#194,.F.);
#262=ORIENTED_EDGE('',*,*,#195,.F.);
#263=ORIENTED_EDGE('',*,*,#196,.T.);
#264=ORIENTED_EDGE('',*,*,#182,.F.);
#265=ORIENTED_EDGE('',*,*,#196,.F.);
#266=ORIENTED_EDGE('',*,*,#197,.T.);
#267=ORIENTED_EDGE('',*,*,#190,.T.);
#268=ORIENTED_EDGE('',*,*,#192,.F.);
#269=ORIENTED_EDGE('',*,*,#198,.T.);
#270=ORIENTED_EDGE('',*,*,#193,.T.);
#271=ORIENTED_EDGE('',*,*,#198,.F.);
#272=ORIENTED_EDGE('',*,*,#177,.F.);
#273=ORIENTED_EDGE('',*,*,#199,.F.);
#274=ORIENTED_EDGE('',*,*,#200,.T.);
#275=ORIENTED_EDGE('',*,*,#194,.T.);
#276=ORIENTED_EDGE('',*,*,#174,.F.);
#277=ORIENTED_EDGE('',*,*,#185,.F.);
#278=ORIENTED_EDGE('',*,*,#201,.F.);
#279=ORIENTED_EDGE('',*,*,#199,.T.);
#280=ORIENTED_EDGE('',*,*,#189,.F.);
#281=ORIENTED_EDGE('',*,*,#191,.T.);
#282=ORIENTED_EDGE('',*,*,#197,.F.);
#283=ORIENTED_EDGE('',*,*,#195,.T.);
#284=ORIENTED_EDGE('',*,*,#200,.F.);
#285=ORIENTED_EDGE('',*,*,#201,.T.);
#286=ORIENTED_EDGE('',*,*,#184,.F.);
#287=ORIENTED_EDGE('',*,*,#187,.T.);
#288=CYLINDRICAL_SURFACE('',#331,0.2);
#289=CYLINDRICAL_SURFACE('',#337,0.2);
#290=CYLINDRICAL_SURFACE('',#342,0.2);
#291=CYLINDRICAL_SURFACE('',#347,0.2);
#292=CYLINDRICAL_SURFACE('',#351,0.25);
#293=CYLINDRICAL_SURFACE('',#354,0.249999999999999);
#294=CYLINDRICAL_SURFACE('',#362,0.25);
#295=CYLINDRICAL_SURFACE('',#364,0.5);
#296=CYLINDRICAL_SURFACE('',#365,0.249999999999999);
#297=ADVANCED_FACE('',(#28),#288,.T.);
#298=ADVANCED_FACE('',(#29),#24,.F.);
#299=ADVANCED_FACE('',(#30),#289,.T.);
#300=ADVANCED_FACE('',(#31),#25,.F.);
#301=ADVANCED_FACE('',(#32),#290,.T.);
#302=ADVANCED_FACE('',(#33),#26,.F.);
#303=ADVANCED_FACE('',(#34),#291,.T.);
#304=ADVANCED_FACE('',(#35),#27,.F.);
#305=ADVANCED_FACE('',(#36),#292,.T.);
#306=ADVANCED_FACE('',(#37),#17,.T.);
#307=ADVANCED_FACE('',(#38),#293,.T.);
#308=ADVANCED_FACE('',(#39),#18,.T.);
#309=ADVANCED_FACE('',(#40,#16),#19,.T.);
#310=ADVANCED_FACE('',(#41),#20,.T.);
#311=ADVANCED_FACE('',(#42),#21,.T.);
#312=ADVANCED_FACE('',(#43),#294,.T.);
#313=ADVANCED_FACE('',(#44),#295,.F.);
#314=ADVANCED_FACE('',(#45),#296,.T.);
#315=ADVANCED_FACE('',(#46),#22,.T.);
#316=ADVANCED_FACE('',(#47),#23,.F.);
#317=CLOSED_SHELL('',(#297,#298,#299,#300,#301,#302,#303,#304,#305,#306,
#307,#308,#309,#310,#311,#312,#313,#314,#315,#316));
#318=DERIVED_UNIT_ELEMENT(#320,1.);
#319=DERIVED_UNIT_ELEMENT(#595,-3.);
#320=(
MASS_UNIT()
NAMED_UNIT(*)
SI_UNIT(.KILO.,.GRAM.)
);
#321=DERIVED_UNIT((#318,#319));
#322=MEASURE_REPRESENTATION_ITEM('density measure',
POSITIVE_RATIO_MEASURE(1290.),#321);
#323=PROPERTY_DEFINITION_REPRESENTATION(#328,#325);
#324=PROPERTY_DEFINITION_REPRESENTATION(#329,#326);
#325=REPRESENTATION('material name',(#327),#592);
#326=REPRESENTATION('density',(#322),#592);
#327=DESCRIPTIVE_REPRESENTATION_ITEM('Plastic','Plastic');
#328=PROPERTY_DEFINITION('material property','material name',#602);
#329=PROPERTY_DEFINITION('material property','density of part',#602);
#330=AXIS2_PLACEMENT_3D('',#468,#369,#370);
#331=AXIS2_PLACEMENT_3D('',#469,#371,#372);
#332=AXIS2_PLACEMENT_3D('',#472,#373,#374);
#333=AXIS2_PLACEMENT_3D('',#476,#376,#377);
#334=AXIS2_PLACEMENT_3D('',#489,#379,#380);
#335=AXIS2_PLACEMENT_3D('',#490,#381,#382);
#336=AXIS2_PLACEMENT_3D('',#491,#383,#384);
#337=AXIS2_PLACEMENT_3D('',#492,#385,#386);
#338=AXIS2_PLACEMENT_3D('',#495,#387,#388);
#339=AXIS2_PLACEMENT_3D('',#509,#391,#392);
#340=AXIS2_PLACEMENT_3D('',#510,#393,#394);
#341=AXIS2_PLACEMENT_3D('',#511,#395,#396);
#342=AXIS2_PLACEMENT_3D('',#512,#397,#398);
#343=AXIS2_PLACEMENT_3D('',#515,#399,#400);
#344=AXIS2_PLACEMENT_3D('',#529,#403,#404);
#345=AXIS2_PLACEMENT_3D('',#530,#405,#406);
#346=AXIS2_PLACEMENT_3D('',#531,#407,#408);
#347=AXIS2_PLACEMENT_3D('',#532,#409,#410);
#348=AXIS2_PLACEMENT_3D('',#535,#411,#412);
#349=AXIS2_PLACEMENT_3D('',#547,#415,#416);
#350=AXIS2_PLACEMENT_3D('',#548,#417,#418);
#351=AXIS2_PLACEMENT_3D('',#549,#419,#420);
#352=AXIS2_PLACEMENT_3D('',#553,#422,#423);
#353=AXIS2_PLACEMENT_3D('',#555,#425,#426);
#354=AXIS2_PLACEMENT_3D('',#559,#429,#430);
#355=AXIS2_PLACEMENT_3D('',#562,#432,#433);
#356=AXIS2_PLACEMENT_3D('',#563,#434,#435);
#357=AXIS2_PLACEMENT_3D('',#567,#438,#439);
#358=AXIS2_PLACEMENT_3D('',#569,#440,#441);
#359=AXIS2_PLACEMENT_3D('',#570,#442,#443);
#360=AXIS2_PLACEMENT_3D('',#572,#444,#445);
#361=AXIS2_PLACEMENT_3D('',#573,#446,#447);
#362=AXIS2_PLACEMENT_3D('',#579,#451,#452);
#363=AXIS2_PLACEMENT_3D('',#580,#453,#454);
#364=AXIS2_PLACEMENT_3D('',#581,#455,#456);
#365=AXIS2_PLACEMENT_3D('',#583,#458,#459);
#366=AXIS2_PLACEMENT_3D('',#586,#461,#462);
#367=AXIS2_PLACEMENT_3D('',#587,#463,#464);
#368=AXIS2_PLACEMENT_3D('',#589,#466,#467);
#369=DIRECTION('axis',(0.,0.,1.));
#370=DIRECTION('refdir',(1.,0.,0.));
#371=DIRECTION('center_axis',(-1.,3.26536183713281E-16,0.));
#372=DIRECTION('ref_axis',(0.,0.707106781186548,0.707106781186547));
#373=DIRECTION('center_axis',(-1.,0.,0.));
#374=DIRECTION('ref_axis',(0.,0.,1.));
#375=DIRECTION('',(-1.,3.26536183713281E-16,0.));
#376=DIRECTION('center_axis',(1.,-6.93889390390723E-16,0.));
#377=DIRECTION('ref_axis',(6.93889390390723E-16,1.,0.));
#378=DIRECTION('',(1.,-3.26536183713281E-16,0.));
#379=DIRECTION('center_axis',(-4.16333634234434E-15,1.,0.));
#380=DIRECTION('ref_axis',(-1.,-4.16333634234434E-15,0.));
#381=DIRECTION('center_axis',(0.,0.,-1.));
#382=DIRECTION('ref_axis',(-0.707106781186548,0.707106781186547,0.));
#383=DIRECTION('center_axis',(0.,0.,1.));
#384=DIRECTION('ref_axis',(-0.707106781186548,0.707106781186547,0.));
#385=DIRECTION('center_axis',(-4.62592926927148E-16,-1.,0.));
#386=DIRECTION('ref_axis',(-0.707106781186548,0.,0.707106781186548));
#387=DIRECTION('center_axis',(1.38777878078145E-15,1.,0.));
#388=DIRECTION('ref_axis',(-1.,1.38777878078145E-15,0.));
#389=DIRECTION('',(4.62592926927148E-16,1.,0.));
#390=DIRECTION('',(-4.62592926927148E-16,-1.,0.));
#391=DIRECTION('center_axis',(-1.,0.,0.));
#392=DIRECTION('ref_axis',(0.,-1.,0.));
#393=DIRECTION('center_axis',(0.,0.,-1.));
#394=DIRECTION('ref_axis',(-0.707106781186547,-0.707106781186548,0.));
#395=DIRECTION('center_axis',(0.,0.,1.));
#396=DIRECTION('ref_axis',(-0.707106781186547,-0.707106781186548,0.));
#397=DIRECTION('center_axis',(1.,-6.53072367426562E-16,0.));
#398=DIRECTION('ref_axis',(-4.9065389333868E-16,-0.707106781186548,0.707106781186547));
#399=DIRECTION('center_axis',(-1.,0.,0.));
#400=DIRECTION('ref_axis',(0.,-1.,0.));
#401=DIRECTION('',(-1.,6.53072367426562E-16,0.));
#402=DIRECTION('',(1.,-6.53072367426562E-16,0.));
#403=DIRECTION('center_axis',(0.,-1.,0.));
#404=DIRECTION('ref_axis',(1.,0.,0.));
#405=DIRECTION('center_axis',(0.,0.,-1.));
#406=DIRECTION('ref_axis',(0.707106781186547,-0.707106781186548,0.));
#407=DIRECTION('center_axis',(0.,0.,1.));
#408=DIRECTION('ref_axis',(0.707106781186547,-0.707106781186548,0.));
#409=DIRECTION('center_axis',(2.94377317135458E-16,1.,0.));
#410=DIRECTION('ref_axis',(0.707106781186548,0.,0.707106781186547));
#411=DIRECTION('center_axis',(0.,-1.,0.));
#412=DIRECTION('ref_axis',(1.,0.,0.));
#413=DIRECTION('',(-2.94377317135458E-16,-1.,0.));
#414=DIRECTION('',(2.94377317135458E-16,1.,0.));
#415=DIRECTION('center_axis',(0.,0.,-1.));
#416=DIRECTION('ref_axis',(0.707106781186548,0.707106781186548,0.));
#417=DIRECTION('center_axis',(0.,0.,1.));
#418=DIRECTION('ref_axis',(0.707106781186548,0.707106781186548,0.));
#419=DIRECTION('center_axis',(0.,0.,1.));
#420=DIRECTION('ref_axis',(-1.,-1.11022302462516E-15,0.));
#421=DIRECTION('',(0.,0.,1.));
#422=DIRECTION('center_axis',(0.,0.,1.));
#423=DIRECTION('ref_axis',(-1.,-1.11022302462516E-15,0.));
#424=DIRECTION('',(0.,0.,1.));
#425=DIRECTION('center_axis',(-1.,4.62592926927148E-16,0.));
#426=DIRECTION('ref_axis',(-4.62592926927148E-16,-1.,0.));
#427=DIRECTION('',(0.,0.,1.));
#428=DIRECTION('',(4.62592926927148E-16,1.,0.));
#429=DIRECTION('center_axis',(0.,0.,1.));
#430=DIRECTION('ref_axis',(1.66533453693774E-15,1.,0.));
#431=DIRECTION('',(0.,0.,1.));
#432=DIRECTION('center_axis',(0.,0.,1.));
#433=DIRECTION('ref_axis',(1.66533453693774E-15,1.,0.));
#434=DIRECTION('center_axis',(3.26536183713281E-16,1.,0.));
#435=DIRECTION('ref_axis',(-1.,3.26536183713281E-16,0.));
#436=DIRECTION('',(0.,0.,1.));
#437=DIRECTION('',(1.,-3.26536183713281E-16,0.));
#438=DIRECTION('center_axis',(0.,0.,1.));
#439=DIRECTION('ref_axis',(1.,0.,0.));
#440=DIRECTION('center_axis',(0.,0.,-1.));
#441=DIRECTION('ref_axis',(1.,0.,0.));
#442=DIRECTION('center_axis',(0.,0.,1.));
#443=DIRECTION('ref_axis',(1.,0.,0.));
#444=DIRECTION('center_axis',(0.,0.,-1.));
#445=DIRECTION('ref_axis',(1.,0.,0.));
#446=DIRECTION('center_axis',(1.,-2.94377317135458E-16,0.));
#447=DIRECTION('ref_axis',(2.94377317135458E-16,1.,0.));
#448=DIRECTION('',(0.,0.,1.));
#449=DIRECTION('',(-2.94377317135458E-16,-1.,0.));
#450=DIRECTION('',(0.,0.,1.));
#451=DIRECTION('center_axis',(0.,0.,1.));
#452=DIRECTION('ref_axis',(1.,0.,0.));
#453=DIRECTION('center_axis',(0.,0.,1.));
#454=DIRECTION('ref_axis',(1.,0.,0.));
#455=DIRECTION('center_axis',(0.,0.,1.));
#456=DIRECTION('ref_axis',(1.,0.,0.));
#457=DIRECTION('',(0.,0.,-1.));
#458=DIRECTION('center_axis',(0.,0.,1.));
#459=DIRECTION('ref_axis',(-2.22044604925032E-15,-1.,0.));
#460=DIRECTION('',(0.,0.,1.));
#461=DIRECTION('center_axis',(0.,0.,1.));
#462=DIRECTION('ref_axis',(-2.22044604925032E-15,-1.,0.));
#463=DIRECTION('center_axis',(-6.53072367426562E-16,-1.,0.));
#464=DIRECTION('ref_axis',(1.,-6.53072367426562E-16,0.));
#465=DIRECTION('',(-1.,6.53072367426562E-16,0.));
#466=DIRECTION('center_axis',(0.,0.,1.));
#467=DIRECTION('ref_axis',(1.,0.,0.));
#468=CARTESIAN_POINT('',(0.,0.,0.));
#469=CARTESIAN_POINT('Origin',(0.425,1.7,0.8));
#470=CARTESIAN_POINT('',(0.850000000000001,1.7,1.));
#471=CARTESIAN_POINT('',(0.850000000000001,1.9,0.8));
#472=CARTESIAN_POINT('Origin',(0.850000000000001,1.7,0.8));
#473=CARTESIAN_POINT('',(-0.85,1.9,0.8));
#474=CARTESIAN_POINT('',(0.425000000000001,1.9,0.8));
#475=CARTESIAN_POINT('',(-0.85,1.7,1.));
#476=CARTESIAN_POINT('Origin',(-0.85,1.7,0.8));
#477=CARTESIAN_POINT('',(0.425,1.7,1.));
#478=CARTESIAN_POINT('Ctrl Pts',(-0.85,1.9,0.8));
#479=CARTESIAN_POINT('Ctrl Pts',(-1.1,1.9,0.8));
#480=CARTESIAN_POINT('Ctrl Pts',(-1.1,1.65,0.8));
#481=CARTESIAN_POINT('Ctrl Pts',(-0.85,1.9,1.));
#482=CARTESIAN_POINT('Ctrl Pts',(-1.1,1.9,1.));
#483=CARTESIAN_POINT('Ctrl Pts',(-1.1,1.65,1.));
#484=CARTESIAN_POINT('Ctrl Pts',(-0.85,1.7,1.));
#485=CARTESIAN_POINT('Ctrl Pts',(-0.9,1.7,1.));
#486=CARTESIAN_POINT('Ctrl Pts',(-0.9,1.65,1.));
#487=CARTESIAN_POINT('',(-1.1,1.65,0.8));
#488=CARTESIAN_POINT('',(-0.9,1.65,1.));
#489=CARTESIAN_POINT('Origin',(-0.9,1.65,0.8));
#490=CARTESIAN_POINT('Origin',(-0.85,1.65,1.));
#491=CARTESIAN_POINT('Origin',(-0.85,1.65,0.8));
#492=CARTESIAN_POINT('Origin',(-0.9,0.825,0.8));
#493=CARTESIAN_POINT('',(-1.1,-1.65,0.8));
#494=CARTESIAN_POINT('',(-0.900000000000001,-1.65,1.));
#495=CARTESIAN_POINT('Origin',(-0.900000000000001,-1.65,0.8));
#496=CARTESIAN_POINT('',(-0.9,0.825,1.));
#497=CARTESIAN_POINT('',(-1.1,0.825000000000001,0.8));
#498=CARTESIAN_POINT('Ctrl Pts',(-1.1,-1.65,0.8));
#499=CARTESIAN_POINT('Ctrl Pts',(-1.1,-1.9,0.8));
#500=CARTESIAN_POINT('Ctrl Pts',(-0.850000000000001,-1.9,0.8));
#501=CARTESIAN_POINT('Ctrl Pts',(-1.1,-1.65,1.));
#502=CARTESIAN_POINT('Ctrl Pts',(-1.1,-1.9,1.));
#503=CARTESIAN_POINT('Ctrl Pts',(-0.850000000000001,-1.9,1.));
#504=CARTESIAN_POINT('Ctrl Pts',(-0.900000000000001,-1.65,1.));
#505=CARTESIAN_POINT('Ctrl Pts',(-0.900000000000001,-1.7,1.));
#506=CARTESIAN_POINT('Ctrl Pts',(-0.850000000000001,-1.7,1.));
#507=CARTESIAN_POINT('',(-0.850000000000001,-1.9,0.8));
#508=CARTESIAN_POINT('',(-0.850000000000001,-1.7,1.));
#509=CARTESIAN_POINT('Origin',(-0.850000000000001,-1.7,0.8));
#510=CARTESIAN_POINT('Origin',(-0.850000000000001,-1.65,1.));
#511=CARTESIAN_POINT('Origin',(-0.850000000000001,-1.65,0.8));
#512=CARTESIAN_POINT('Origin',(-0.425000000000001,-1.7,0.8));
#513=CARTESIAN_POINT('',(0.85,-1.9,0.8));
#514=CARTESIAN_POINT('',(0.85,-1.7,1.));
#515=CARTESIAN_POINT('Origin',(0.85,-1.7,0.8));
#516=CARTESIAN_POINT('',(-0.425000000000001,-1.7,1.));
#517=CARTESIAN_POINT('',(-0.425000000000002,-1.9,0.8));
#518=CARTESIAN_POINT('Ctrl Pts',(0.850000000000001,-1.9,0.8));
#519=CARTESIAN_POINT('Ctrl Pts',(1.1,-1.9,0.8));
#520=CARTESIAN_POINT('Ctrl Pts',(1.1,-1.65,0.8));
#521=CARTESIAN_POINT('Ctrl Pts',(0.850000000000001,-1.9,1.));
#522=CARTESIAN_POINT('Ctrl Pts',(1.1,-1.9,1.));
#523=CARTESIAN_POINT('Ctrl Pts',(1.1,-1.65,1.));
#524=CARTESIAN_POINT('Ctrl Pts',(0.850000000000001,-1.7,1.));
#525=CARTESIAN_POINT('Ctrl Pts',(0.9,-1.7,1.));
#526=CARTESIAN_POINT('Ctrl Pts',(0.899999999999999,-1.65,1.));
#527=CARTESIAN_POINT('',(1.1,-1.65,0.8));
#528=CARTESIAN_POINT('',(0.9,-1.65,1.));
#529=CARTESIAN_POINT('Origin',(0.9,-1.65,0.8));
#530=CARTESIAN_POINT('Origin',(0.850000000000001,-1.65,1.));
#531=CARTESIAN_POINT('Origin',(0.850000000000001,-1.65,0.8));
#532=CARTESIAN_POINT('Origin',(0.9,-0.825000000000001,0.8));
#533=CARTESIAN_POINT('',(1.1,1.65,0.8));
#534=CARTESIAN_POINT('',(0.900000000000001,1.65,1.));
#535=CARTESIAN_POINT('Origin',(0.900000000000001,1.65,0.8));
#536=CARTESIAN_POINT('',(0.9,-0.825000000000001,1.));
#537=CARTESIAN_POINT('',(1.1,-0.825000000000001,0.8));
#538=CARTESIAN_POINT('Ctrl Pts',(1.1,1.65,0.8));
#539=CARTESIAN_POINT('Ctrl Pts',(1.1,1.9,0.8));
#540=CARTESIAN_POINT('Ctrl Pts',(0.850000000000001,1.9,0.8));
#541=CARTESIAN_POINT('Ctrl Pts',(1.1,1.65,1.));
#542=CARTESIAN_POINT('Ctrl Pts',(1.1,1.9,1.));
#543=CARTESIAN_POINT('Ctrl Pts',(0.850000000000001,1.9,1.));
#544=CARTESIAN_POINT('Ctrl Pts',(0.900000000000001,1.65,1.));
#545=CARTESIAN_POINT('Ctrl Pts',(0.900000000000001,1.7,1.));
#546=CARTESIAN_POINT('Ctrl Pts',(0.850000000000001,1.7,1.));
#547=CARTESIAN_POINT('Origin',(0.850000000000001,1.65,1.));
#548=CARTESIAN_POINT('Origin',(0.850000000000001,1.65,0.8));
#549=CARTESIAN_POINT('Origin',(-0.850000000000001,-1.65,0.));
#550=CARTESIAN_POINT('',(-1.1,-1.65,0.));
#551=CARTESIAN_POINT('',(-1.1,-1.65,0.));
#552=CARTESIAN_POINT('',(-0.850000000000001,-1.9,0.));
#553=CARTESIAN_POINT('Origin',(-0.850000000000001,-1.65,0.));
#554=CARTESIAN_POINT('',(-0.850000000000001,-1.9,0.));
#555=CARTESIAN_POINT('Origin',(-1.1,1.65,0.));
#556=CARTESIAN_POINT('',(-1.1,1.65,0.));
#557=CARTESIAN_POINT('',(-1.1,1.65,0.));
#558=CARTESIAN_POINT('',(-1.1,-1.65,0.));
#559=CARTESIAN_POINT('Origin',(-0.85,1.65,0.));
#560=CARTESIAN_POINT('',(-0.85,1.9,0.));
#561=CARTESIAN_POINT('',(-0.85,1.9,0.));
#562=CARTESIAN_POINT('Origin',(-0.85,1.65,0.));
#563=CARTESIAN_POINT('Origin',(0.850000000000001,1.9,0.));
#564=CARTESIAN_POINT('',(0.850000000000001,1.9,0.));
#565=CARTESIAN_POINT('',(0.850000000000001,1.9,0.));
#566=CARTESIAN_POINT('',(-0.85,1.9,0.));
#567=CARTESIAN_POINT('Origin',(-2.77555756156289E-16,0.,1.));
#568=CARTESIAN_POINT('',(-0.5,0.799999982118606,1.));
#569=CARTESIAN_POINT('Origin',(-1.73472347597681E-17,0.799999982118606,
1.));
#570=CARTESIAN_POINT('Origin',(-2.77555756156289E-16,0.,0.8));
#571=CARTESIAN_POINT('',(-0.5,0.799999982118606,0.8));
#572=CARTESIAN_POINT('Origin',(-1.73472347597681E-17,0.799999982118606,
0.8));
#573=CARTESIAN_POINT('Origin',(1.1,-1.65,0.));
#574=CARTESIAN_POINT('',(1.1,-1.65,0.));
#575=CARTESIAN_POINT('',(1.1,-1.65,0.));
#576=CARTESIAN_POINT('',(1.1,1.65,0.));
#577=CARTESIAN_POINT('',(1.1,1.65,0.));
#578=CARTESIAN_POINT('',(1.1,1.65,0.));
#579=CARTESIAN_POINT('Origin',(0.850000000000001,1.65,0.));
#580=CARTESIAN_POINT('Origin',(0.850000000000001,1.65,0.));
#581=CARTESIAN_POINT('Origin',(-1.73472347597681E-17,0.799999982118606,
0.));
#582=CARTESIAN_POINT('',(-0.5,0.799999982118606,0.));
#583=CARTESIAN_POINT('Origin',(0.850000000000001,-1.65,0.));
#584=CARTESIAN_POINT('',(0.85,-1.9,0.));
#585=CARTESIAN_POINT('',(0.85,-1.9,0.));
#586=CARTESIAN_POINT('Origin',(0.850000000000001,-1.65,0.));
#587=CARTESIAN_POINT('Origin',(-0.850000000000002,-1.9,0.));
#588=CARTESIAN_POINT('',(0.85,-1.9,0.));
#589=CARTESIAN_POINT('Origin',(-2.77555756156289E-16,0.,0.));
#590=UNCERTAINTY_MEASURE_WITH_UNIT(LENGTH_MEASURE(0.01),#594,
'DISTANCE_ACCURACY_VALUE',
'Maximum model space distance between geometric entities at asserted c
onnectivities');
#591=UNCERTAINTY_MEASURE_WITH_UNIT(LENGTH_MEASURE(0.01),#594,
'DISTANCE_ACCURACY_VALUE',
'Maximum model space distance between geometric entities at asserted c
onnectivities');
#592=(
GEOMETRIC_REPRESENTATION_CONTEXT(3)
GLOBAL_UNCERTAINTY_ASSIGNED_CONTEXT((#590))
GLOBAL_UNIT_ASSIGNED_CONTEXT((#594,#596,#597))
REPRESENTATION_CONTEXT('','3D')
);
#593=(
GEOMETRIC_REPRESENTATION_CONTEXT(3)
GLOBAL_UNCERTAINTY_ASSIGNED_CONTEXT((#591))
GLOBAL_UNIT_ASSIGNED_CONTEXT((#594,#596,#597))
REPRESENTATION_CONTEXT('','3D')
);
#594=(
LENGTH_UNIT()
NAMED_UNIT(*)
SI_UNIT(.MILLI.,.METRE.)
);
#595=(
LENGTH_UNIT()
NAMED_UNIT(*)
SI_UNIT($,.METRE.)
);
#596=(
NAMED_UNIT(*)
PLANE_ANGLE_UNIT()
SI_UNIT($,.RADIAN.)
);
#597=(
NAMED_UNIT(*)
SI_UNIT($,.STERADIAN.)
SOLID_ANGLE_UNIT()
);
#598=SHAPE_DEFINITION_REPRESENTATION(#599,#600);
#599=PRODUCT_DEFINITION_SHAPE('',$,#602);
#600=SHAPE_REPRESENTATION('',(#330),#592);
#601=PRODUCT_DEFINITION_CONTEXT('part definition',#606,'design');
#602=PRODUCT_DEFINITION('(Unsaved)','(Unsaved)',#603,#601);
#603=PRODUCT_DEFINITION_FORMATION('',$,#608);
#604=PRODUCT_RELATED_PRODUCT_CATEGORY('(Unsaved)','(Unsaved)',(#608));
#605=APPLICATION_PROTOCOL_DEFINITION('international standard',
'automotive_design',2009,#606);
#606=APPLICATION_CONTEXT(
'Core Data for Automotive Mechanical Design Process');
#607=PRODUCT_CONTEXT('part definition',#606,'mechanical');
#608=PRODUCT('(Unsaved)','(Unsaved)',$,(#607));
#609=PRESENTATION_STYLE_ASSIGNMENT((#611));
#610=PRESENTATION_STYLE_ASSIGNMENT((#612));
#611=SURFACE_STYLE_USAGE(.BOTH.,#613);
#612=SURFACE_STYLE_USAGE(.BOTH.,#614);
#613=SURFACE_SIDE_STYLE('',(#615));
#614=SURFACE_SIDE_STYLE('',(#616));
#615=SURFACE_STYLE_FILL_AREA(#617);
#616=SURFACE_STYLE_FILL_AREA(#618);
#617=FILL_AREA_STYLE('Plastic - Glossy (Grey)',(#619));
#618=FILL_AREA_STYLE('Plastic - Glossy (Grey) (1)',(#620));
#619=FILL_AREA_STYLE_COLOUR('Plastic - Glossy (Grey)',#621);
#620=FILL_AREA_STYLE_COLOUR('Plastic - Glossy (Grey) (1)',#622);
#621=COLOUR_RGB('Plastic - Glossy (Grey)',0.701960784313725,0.701960784313725,
0.701960784313725);
#622=COLOUR_RGB('Plastic - Glossy (Grey) (1)',0.105882352941176,0.105882352941176,
0.105882352941176);
ENDSEC;
END-ISO-10303-21;
